<svg fill="#000"  height="400" viewBox="0 0 512 512" width="400" xmlns="http://www.w3.org/2000/svg" aria-labelledby="ico-thumb"><title id="ico-thumb">ico thumb up</title><path d="m495.736 290.773c13.661-8.456 16.264-21.376 16.264-29.977 0-22.4-18.253-47.462-42.667-47.462h-119.415c-4.284-.051-25.651-1.51-25.651-25.6 0-4.71-3.814-8.533-8.533-8.533s-8.533 3.823-8.533 8.533c0 33.749 27.913 42.667 42.667 42.667h119.467c14.182 0 25.6 16.631 25.6 30.396 0 4.437 0 17.946-26.53 20.855-4.506.495-7.834 4.42-7.586 8.951.239 4.523 3.985 8.064 8.516 8.064 14.114 0 25.6 11.486 25.6 25.6s-11.486 25.6-25.6 25.6h-17.067c-4.719 0-8.533 3.823-8.533 8.533s3.814 8.533 8.533 8.533c14.114 0 25.6 11.486 25.6 25.6s-11.486 25.6-25.6 25.6h-25.6c-4.719 0-8.533 3.823-8.533 8.533s3.814 8.533 8.533 8.533c8.934 0 17.067 8.132 17.067 17.067 0 8.61-8.448 17.067-17.067 17.067h-128c-35.627 0-48.444-7.074-63.292-15.258-12.553-6.921-26.786-14.763-54.963-18.79-4.668-.674-8.994 2.577-9.66 7.236-.666 4.668 2.569 8.994 7.236 9.66 25.105 3.584 37.325 10.325 49.152 16.845 15.497 8.542 31.505 17.374 71.526 17.374h128c17.869 0 34.133-16.273 34.133-34.133 0-6.229-1.775-12.134-4.83-17.229 21.794-1.877 38.963-20.224 38.963-42.505 0-10.829-4.062-20.736-10.735-28.271 16.222-6.05 27.802-21.691 27.802-39.995 0-13.568-6.366-25.677-16.264-33.494z"/><path d="m76.8 443.733c9.412 0 17.067-7.654 17.067-17.067s-7.655-17.066-17.067-17.066-17.067 7.654-17.067 17.067 7.655 17.066 17.067 17.066z"/><path d="m179.2 247.467c25.353 0 57.429-28.297 74.3-45.167 36.634-36.634 36.634-82.167 36.634-151.1 0-5.342 3.191-8.533 8.533-8.533 29.508 0 42.667 13.158 42.667 42.667v102.4c0 4.71 3.814 8.533 8.533 8.533s8.533-3.823 8.533-8.533v-102.4c0-39.083-20.659-59.733-59.733-59.733-14.831 0-25.6 10.769-25.6 25.6 0 66.978 0 107.401-31.633 139.034-24.773 24.771-48.623 40.165-62.234 40.165-4.719 0-8.533 3.823-8.533 8.533s3.814 8.534 8.533 8.534z"/><path d="m145.067 213.333h-136.534c-4.719 0-8.533 3.823-8.533 8.533v256c0 4.71 3.814 8.533 8.533 8.533h136.533c4.719 0 8.533-3.823 8.533-8.533v-256c.001-4.71-3.813-8.533-8.532-8.533zm-8.534 256h-119.466v-238.933h119.467v238.933z"/></svg>